<svg width="26" height="26" viewBox="0 0 26 26" fill="none" xmlns="http://www.w3.org/2000/svg">
<path fill-rule="evenodd" clip-rule="evenodd" d="M13 2.16669C7.01696 2.16669 2.16669 7.01691 2.16669 13C2.16669 18.9831 7.01696 23.8334 13 23.8334C18.9832 23.8334 23.8334 18.9831 23.8334 13C23.8334 7.01691 18.9832 2.16669 13 2.16669ZM13 21.6667C8.22123 21.6667 4.33337 17.7788 4.33337 13C4.33337 8.22118 8.22118 4.33337 13 4.33337C17.7789 4.33337 21.6667 8.22118 21.6667 13C21.6667 17.7788 17.7789 21.6667 13 21.6667ZM14.3566 8.66669C14.3566 9.45217 13.7847 10.0209 13.011 10.0209C12.2061 10.0209 11.6482 9.45212 11.6482 8.65166C11.6482 7.88232 12.2212 7.31255 13.011 7.31255C13.7847 7.31255 14.3566 7.88232 14.3566 8.66669ZM11.9191 11.9167H14.0857V18.4167H11.9191V11.9167Z" fill="#0D98BA"/>
</svg>
