<svg width="24" height="25" viewBox="0 0 24 25" fill="none" xmlns="http://www.w3.org/2000/svg">
<path d="M4 10.3517C4 6.58068 4 4.69468 5.172 3.52368C6.344 2.35268 8.229 2.35168 12 2.35168H13.5C17.271 2.35168 19.157 2.35168 20.328 3.52368C21.499 4.69568 21.5 6.58068 21.5 10.3517V14.3517C21.5 18.1227 21.5 20.0087 20.328 21.1797C19.156 22.3507 17.271 22.3517 13.5 22.3517H12C8.229 22.3517 6.343 22.3517 5.172 21.1797C4.001 20.0077 4 18.1227 4 14.3517V10.3517Z" stroke="#0D98BA" stroke-width="1.5" stroke-linecap="round" stroke-linejoin="round"/>
<path d="M9.8 12.3257C9.373 11.5817 9.167 10.9747 9.043 10.3587C8.859 9.44868 9.28 8.55868 9.976 7.99068C10.271 7.75068 10.608 7.83268 10.782 8.14568L11.175 8.85068C11.486 9.40868 11.642 9.68868 11.611 9.98468C11.581 10.2807 11.371 10.5217 10.951 11.0047L9.8 12.3257ZM9.8 12.3257C10.7001 13.8681 11.9836 15.1516 13.526 16.0517M13.526 16.0517C14.27 16.4787 14.877 16.6847 15.493 16.8087C16.403 16.9927 17.293 16.5717 17.861 15.8757C18.101 15.5807 18.019 15.2437 17.706 15.0697L17.002 14.6767C16.442 14.3657 16.163 14.2097 15.867 14.2407C15.571 14.2707 15.33 14.4807 14.847 14.9007L13.526 16.0517ZM5 6.35168H2.5M5 12.3517H2.5M5 18.3517H2.5" stroke="#0D98BA" stroke-width="1.5" stroke-linecap="round" stroke-linejoin="round"/>
</svg>
