<svg width="26" height="25" viewBox="0 0 26 25" fill="none" xmlns="http://www.w3.org/2000/svg">
<path d="M24.4013 0H1.62673C1.055 0 0.591522 0.46637 0.591522 1.04167V23.9583C0.591522 24.5336 1.055 25 1.62673 25H13.862V15.3187H10.6243V11.5457H13.862V8.76322C13.862 5.53417 15.822 3.7759 18.6847 3.7759C20.0559 3.7759 21.2344 3.87862 21.5779 3.92454V7.29908L19.5925 7.29999C18.0356 7.29999 17.7341 8.04441 17.7341 9.1368V11.5457H21.4472L20.9637 15.3187H17.7341V25H24.4013C24.9731 25 25.4365 24.5336 25.4365 23.9583V1.04167C25.4365 0.46637 24.9731 0 24.4013 0Z" fill="#7D818D"/>
</svg>
