<svg width="25" height="25" viewBox="0 0 25 25" fill="none" xmlns="http://www.w3.org/2000/svg">
<path d="M23.9642 0C24.5335 0 24.9993 0.469076 24.9993 1.04199V23.958C24.9993 24.5309 24.5335 25 23.9642 25H1.18976C0.620417 25 0.154602 24.5309 0.154602 23.958V1.04199C0.154602 0.469093 0.620417 2.91147e-05 1.18976 0H23.9642ZM3.82941 21.3018H7.50421V9.375H3.82941V21.3018ZM16.8734 9.0625C15.1138 9.0625 13.8716 10.0519 13.4056 10.9893H13.3538V9.375H9.83331V21.3018H13.5091V15.417C13.5091 13.8545 13.8195 12.3438 15.7347 12.3438C17.6493 12.3439 17.6497 14.1144 17.6497 15.5205V21.3018H21.2728V14.7393C21.2727 11.5104 20.5997 9.06261 16.8734 9.0625ZM5.69269 3.48926C4.5024 3.48948 3.57062 4.42722 3.57062 5.625C3.57067 6.82273 4.50243 7.76052 5.69269 7.76074C6.88314 7.76074 7.81568 6.77079 7.81573 5.625C7.81573 4.42708 6.88318 3.48926 5.69269 3.48926Z" fill="#7D818D"/>
</svg>
