<svg width="300" height="300" viewBox="0 0 300 300" fill="none" xmlns="http://www.w3.org/2000/svg">
<path d="M150 0C69.87 0 0 66.1501 0 142.5C0 217.56 68.295 276.63 150 276.63C167.475 276.642 184.842 273.878 201.45 268.44C208.41 275.19 210.795 277.485 225.57 291.735C236.22 299.775 246.24 302.505 255.195 297.435C264.225 292.335 266.94 282.405 265.095 269.325L259.095 234.54C285.15 210.03 300 177.63 300 142.5C300 66.1501 230.145 0 150 0ZM150 21C218.79 21 279 78.0001 279 142.5C279 173.175 265.32 201.42 241.2 222.45L240.9 222.705L236.445 226.575L237.45 232.425L239.52 244.485L240.075 247.695L244.35 272.565C244.595 274.241 244.745 275.928 244.8 277.62V279.045C244.8 279.115 244.81 279.155 244.83 279.165C244.725 279.015 242.685 278.37 239.19 275.82L206.64 244.23L200.43 246.57C184.298 252.586 167.217 255.66 150 255.645C79.26 255.645 21 205.245 21 142.5C21 78.0151 81.21 21 150 21ZM221.595 117.195C218.573 117.085 215.56 117.585 212.736 118.665C209.911 119.745 207.334 121.384 205.157 123.482C202.98 125.581 201.248 128.097 200.066 130.88C198.883 133.663 198.274 136.656 198.274 139.68C198.274 142.704 198.883 145.697 200.066 148.48C201.248 151.263 202.98 153.779 205.157 155.878C207.334 157.977 209.911 159.615 212.736 160.696C215.56 161.776 218.573 162.276 221.595 162.165C227.416 161.953 232.928 159.491 236.971 155.297C241.014 151.104 243.274 145.505 243.274 139.68C243.274 133.855 241.014 128.257 236.971 124.063C232.928 119.87 227.416 117.408 221.595 117.195ZM146.625 117.195C143.603 117.085 140.59 117.585 137.766 118.665C134.941 119.745 132.364 121.384 130.187 123.482C128.01 125.581 126.278 128.097 125.096 130.88C123.913 133.663 123.304 136.656 123.304 139.68C123.304 142.704 123.913 145.697 125.096 148.48C126.278 151.263 128.01 153.779 130.187 155.878C132.364 157.977 134.941 159.615 137.766 160.696C140.59 161.776 143.603 162.276 146.625 162.165C152.446 161.953 157.958 159.491 162.001 155.297C166.044 151.104 168.304 145.505 168.304 139.68C168.304 133.855 166.044 128.257 162.001 124.063C157.958 119.87 152.446 117.408 146.625 117.195ZM71.67 117.195C68.6481 117.085 65.635 117.585 62.8106 118.665C59.9863 119.745 57.4086 121.384 55.2318 123.482C53.0549 125.581 51.3234 128.097 50.1407 130.88C48.9581 133.663 48.3485 136.656 48.3485 139.68C48.3485 142.704 48.9581 145.697 50.1407 148.48C51.3234 151.263 53.0549 153.779 55.2318 155.878C57.4086 157.977 59.9863 159.615 62.8106 160.696C65.635 161.776 68.6481 162.276 71.67 162.165C77.4913 161.953 83.0032 159.491 87.0463 155.297C91.0894 151.104 93.3486 145.505 93.3486 139.68C93.3486 133.855 91.0894 128.257 87.0463 124.063C83.0032 119.87 77.4913 117.408 71.67 117.195Z" fill="#0D98BA" fill-opacity="0.04"/>
</svg>
