<svg width="26" height="26" viewBox="0 0 26 26" fill="none" xmlns="http://www.w3.org/2000/svg">
<path d="M24.375 19.5V17.875H22.6679C22.5625 17.3666 22.3606 16.8831 22.0732 16.4507L23.2838 15.2401L22.1349 14.0912L20.9243 15.3018C20.4919 15.0144 20.0084 14.8125 19.5 14.7071V13H17.875V14.7071C17.3666 14.8125 16.8831 15.0144 16.4507 15.3018L15.2401 14.0912L14.0912 15.2401L15.3018 16.4507C15.0144 16.8831 14.8125 17.3666 14.7071 17.875H13V19.5H14.7071C14.8127 20.0176 15.0191 20.4986 15.3018 20.9243L14.0912 22.1349L15.2401 23.2838L16.4507 22.0732C16.8831 22.3606 17.3666 22.5625 17.875 22.6679V24.375H19.5V22.6679C20.0084 22.5625 20.4919 22.3606 20.9243 22.0732L22.1349 23.2838L23.2838 22.1349L22.0732 20.9243C22.3606 20.4919 22.5625 20.0084 22.6679 19.5H24.375ZM18.6875 21.125C17.3436 21.125 16.25 20.0314 16.25 18.6875C16.25 17.3436 17.3436 16.25 18.6875 16.25C20.0314 16.25 21.125 17.3436 21.125 18.6875C21.125 20.0314 20.0314 21.125 18.6875 21.125ZM9.75 4.875H13V6.5H9.75V4.875Z" fill="#0D98BA"/>
<path d="M4.875 22.75V3.25H17.875V10.5625H19.5V3.25C19.5 2.35381 18.7712 1.625 17.875 1.625H4.875C3.97881 1.625 3.25 2.35381 3.25 3.25V22.75C3.25 23.6462 3.97881 24.375 4.875 24.375H11.375V22.75H4.875Z" fill="#0D98BA"/>
</svg>
