<svg width="149" height="170" viewBox="0 0 149 170" fill="none" xmlns="http://www.w3.org/2000/svg">
<g clip-path="url(#clip0_124_36)">
<path d="M130.238 33.383C130.121 32.533 129.377 32.0625 128.761 32.0107C128.147 31.9595 115.153 30.996 115.153 30.996C115.153 30.996 106.128 22.0331 105.138 21.0411C104.147 20.0496 102.211 20.3512 101.46 20.5724C101.349 20.605 99.4882 21.1796 96.4095 22.1327C93.3949 13.4545 88.0745 5.47967 78.7146 5.47967C78.4563 5.47967 78.1903 5.49015 77.9243 5.50529C75.2624 1.98361 71.9649 0.453613 69.1167 0.453613C47.3131 0.453613 36.8964 27.7206 33.6304 41.5767C25.158 44.203 19.1392 46.0701 18.3704 46.3117C13.6413 47.7957 13.4918 47.9447 12.8708 52.4026C12.4035 55.7775 0.0295715 151.507 0.0295715 151.507L96.4497 169.579L148.693 158.273C148.693 158.273 130.353 34.233 130.238 33.383ZM91.0804 23.7815L82.9217 26.3076C82.9246 25.7324 82.9276 25.1665 82.9276 24.5476C82.9276 19.1542 82.1791 14.8116 80.9785 11.3691C85.8013 11.9746 89.0132 17.4641 91.0804 23.7815ZM74.9958 12.4386C76.3367 15.7996 77.2085 20.6231 77.2085 27.132C77.2085 27.465 77.2056 27.7695 77.2027 28.0774C71.8968 29.7216 66.1312 31.5066 60.3528 33.2974C63.5973 20.7709 69.6789 14.7208 74.9958 12.4386ZM68.5179 6.30406C69.4589 6.30406 70.407 6.62368 71.3143 7.24837C64.3265 10.5378 56.8365 18.8223 53.6735 35.3665L40.3545 39.4931C44.0593 26.8741 52.857 6.30406 68.5179 6.30406Z" fill="#95BF46"/>
<path d="M128.761 32.0106C128.147 31.9594 115.153 30.9958 115.153 30.9958C115.153 30.9958 106.128 22.033 105.138 21.041C104.767 20.6718 104.267 20.4826 103.745 20.4011L96.4543 169.578L148.693 158.273C148.693 158.273 130.353 34.2328 130.238 33.3828C130.121 32.5328 129.377 32.0624 128.761 32.0106Z" fill="#5E8E3E"/>
<path d="M78.7146 60.8886L72.2728 80.0578C72.2728 80.0578 66.6288 77.0444 59.7103 77.0444C49.5677 77.0444 49.0573 83.4118 49.0573 85.0164C49.0573 93.7714 71.8706 97.1259 71.8706 117.633C71.8706 133.767 61.6413 144.157 47.8485 144.157C31.2972 144.157 22.833 133.852 22.833 133.852L27.2647 119.204C27.2647 119.204 35.9652 126.676 43.3068 126.676C48.104 126.676 50.0554 122.898 50.0554 120.137C50.0554 108.717 31.3391 108.207 31.3391 89.4416C31.3391 73.6473 42.6713 58.363 65.5463 58.363C74.3603 58.363 78.7146 60.8886 78.7146 60.8886Z" fill="white"/>
</g>
<defs>
<clipPath id="clip0_124_36">
<rect width="149" height="170" fill="white"/>
</clipPath>
</defs>
</svg>
