<svg width="177" height="209" viewBox="0 0 177 209" fill="none" xmlns="http://www.w3.org/2000/svg">
<g clip-path="url(#clip0_123_33)">
<path d="M88.5033 209C39.4584 209 -0.366591 162.844 0.00331142 104.5C0.373214 46.1555 37.6158 0 88.5033 0C139.394 0 177.003 47.025 177.003 104.5C177.003 161.975 137.548 209 88.5033 209ZM114.683 192.888L89.6096 113.207L66.0084 194.631C83.342 199.424 95.1408 200.726 114.683 192.888ZM53.4732 188.537L15.8607 67.0555C10.6959 80.118 9.59312 91.0048 8.85331 104.5C9.22322 140.201 26.1834 172.858 53.4732 188.537ZM167.787 104.5C168.153 81.4243 159.307 63.1368 158.567 60.5243C159.307 78.3791 157.091 87.5187 154.512 97.5361L128.698 185.055C161.149 161.975 167.414 127.576 168.153 104.5H167.787ZM85.9244 100.581L73.3857 60.0875L64.1658 59.218C60.4806 56.1687 62.6897 51.3805 65.2721 51.3805C81.8658 52.6868 91.0823 52.6868 107.679 51.3805C111.738 51.3805 112.841 58.3486 108.046 59.218L99.1959 60.0875L127.955 160.232L141.596 105.369C142.336 81.4243 136.801 78.8118 129.428 61.3938C123.526 47.8945 129.798 34.832 141.23 34.3993C132.007 23.9493 113.204 10.8868 88.4964 10.45C63.789 10.0132 37.6089 24.8187 22.1214 52.6868L49.4112 51.8173C52.73 53.5603 51.2538 59.218 49.4112 59.6548L39.8249 60.5243L68.5874 162.412L85.9244 100.581Z" fill="#3B7BCE"/>
</g>
<defs>
<clipPath id="clip0_123_33">
<rect width="177" height="209" fill="white"/>
</clipPath>
</defs>
</svg>
