<svg width="26" height="25" viewBox="0 0 26 25" fill="none" xmlns="http://www.w3.org/2000/svg">
<path d="M12.6058 0C15.979 9.79716e-07 16.402 0.0147904 17.7269 0.0751953C19.7464 0.167897 21.5193 0.665598 22.9427 2.09766C24.3666 3.53047 24.8613 5.31543 24.9534 7.34668C25.0135 8.67976 25.0276 9.10548 25.0276 12.5C25.0276 15.8945 25.0135 16.3202 24.9534 17.6533C24.8613 19.6856 24.3661 21.4701 22.9427 22.9023C21.5188 24.3349 19.7449 24.8321 17.7269 24.9248C16.402 24.9852 15.979 25 12.6058 25C9.23203 25 8.80877 24.9852 7.4837 24.9248C5.4641 24.8321 3.69126 24.3345 2.26788 22.9023C0.843953 21.4695 0.349275 19.6846 0.257141 17.6533C0.197112 16.3203 0.182922 15.8945 0.182922 12.5C0.182922 9.1055 0.197112 8.67975 0.257141 7.34668C0.349275 5.31439 0.844471 3.52995 2.26788 2.09766C3.69178 0.664973 5.46514 0.167905 7.4837 0.0751953C8.80877 0.0147786 9.23203 0 12.6058 0ZM12.6058 2.25195C9.2893 2.25195 8.89599 2.26531 7.58624 2.3252C6.17272 2.3903 4.86021 2.6749 3.85089 3.69043C2.84156 4.70605 2.55817 6.02682 2.49347 7.44922C2.43344 8.76719 2.4212 9.16278 2.4212 12.5C2.4212 15.8373 2.43395 16.2327 2.49347 17.5508C2.55817 18.9732 2.84156 20.2939 3.85089 21.3096C4.8602 22.3251 6.17275 22.6097 7.58624 22.6748C8.89546 22.7352 9.28878 22.748 12.6058 22.748C15.9229 22.748 16.3158 22.7347 17.6253 22.6748C19.0389 22.6097 20.3513 22.3252 21.3607 21.3096C22.37 20.2939 22.6524 18.9732 22.7171 17.5508C22.7771 16.2327 22.7903 15.8373 22.7903 12.5C22.7903 9.16276 22.7766 8.76721 22.7171 7.44922C22.6524 6.02687 22.3699 4.70604 21.3607 3.69043C20.3513 2.67481 19.0389 2.3903 17.6253 2.3252C16.3153 2.26478 15.9224 2.25195 12.6058 2.25195Z" fill="#7D818D"/>
<path d="M13.1699 6.81824C16.6006 6.81824 19.3818 9.61613 19.3818 13.0682C19.3818 16.5203 16.6006 19.3182 13.1699 19.3182C9.73936 19.3181 6.95898 16.5197 6.95898 13.0682C6.95898 9.61675 9.73936 6.81841 13.1699 6.81824ZM13.1699 9.01062C10.9434 9.01077 9.13867 10.8278 9.13867 13.0682C9.13879 15.3086 10.9435 17.1247 13.1699 17.1249C15.3965 17.1249 17.202 15.3087 17.2021 13.0682C17.2021 10.8277 15.3966 9.01062 13.1699 9.01062Z" fill="#7D818D"/>
<ellipse cx="18.8168" cy="6.25008" rx="1.69398" ry="1.70455" fill="#7D818D"/>
</svg>
