<svg width="22" height="22" viewBox="0 0 22 22" fill="none" xmlns="http://www.w3.org/2000/svg">
<path d="M3 9C3 5.229 3 3.343 4.172 2.172C5.344 1.001 7.229 1 11 1H12.5C16.271 1 18.157 1 19.328 2.172C20.499 3.344 20.5 5.229 20.5 9V13C20.5 16.771 20.5 18.657 19.328 19.828C18.156 20.999 16.271 21 12.5 21H11C7.229 21 5.343 21 4.172 19.828C3.001 18.656 3 16.771 3 13V9Z" stroke="#0D98BA" stroke-width="1.5" stroke-linecap="round" stroke-linejoin="round"/>
<path d="M8.8 10.974C8.373 10.23 8.167 9.623 8.043 9.007C7.859 8.097 8.28 7.207 8.976 6.639C9.271 6.399 9.608 6.481 9.782 6.794L10.175 7.499C10.486 8.057 10.642 8.337 10.611 8.633C10.581 8.929 10.371 9.17 9.951 9.653L8.8 10.974ZM8.8 10.974C9.70011 12.5164 10.9836 13.7999 12.526 14.7M12.526 14.7C13.27 15.127 13.877 15.333 14.493 15.457C15.403 15.641 16.293 15.22 16.861 14.524C17.101 14.229 17.019 13.892 16.706 13.718L16.002 13.325C15.442 13.014 15.163 12.858 14.867 12.889C14.571 12.919 14.33 13.129 13.847 13.549L12.526 14.7ZM4 5H1.5M4 11H1.5M4 17H1.5" stroke="#0D98BA" stroke-width="1.5" stroke-linecap="round" stroke-linejoin="round"/>
</svg>
 