<svg width="24" height="22" viewBox="0 0 24 22" fill="none" xmlns="http://www.w3.org/2000/svg">
<path fill-rule="evenodd" clip-rule="evenodd" d="M23.4647 3.19395C22.5848 3.6235 21.656 3.89197 20.6783 4.05305C21.656 3.40872 22.4382 2.38853 22.7804 1.15357C21.8515 1.7442 20.825 2.17376 19.7006 2.44223C18.8207 1.42204 17.5497 0.77771 16.1809 0.77771C13.5411 0.77771 11.3902 3.14025 11.3902 6.03974C11.3902 6.46929 11.4391 6.84515 11.5368 7.22101C7.57716 7.00623 4.00856 4.91216 1.6132 1.69051C1.22212 2.49592 0.977698 3.35503 0.977698 4.32152C0.977698 6.14713 1.80874 7.75795 3.12863 8.72445C2.34647 8.67075 1.6132 8.45597 0.928813 8.08012V8.13381C0.928813 10.7111 2.5909 12.8589 4.79072 13.3421C4.39964 13.4495 3.95968 13.5032 3.51971 13.5032C3.2264 13.5032 2.88421 13.4495 2.5909 13.3958C3.2264 15.4899 4.98626 17.047 7.08831 17.047C5.42622 18.4431 3.37306 19.3022 1.12435 19.3022C0.733273 19.3022 0.342194 19.3022 0 19.2485C2.15093 20.7519 4.64406 21.611 7.38162 21.611C16.2298 21.611 21.0694 13.5569 21.0694 6.57668C21.0694 6.3619 21.0694 6.09343 21.0694 5.87865C21.9982 5.18063 22.8292 4.26783 23.4647 3.19395Z" fill="#7D818D"/>
</svg>
